<svg width="99" height="99" viewBox="0 0 99 99" fill="none" xmlns="http://www.w3.org/2000/svg">
<rect width="99" height="99" rx="24" fill="#FFC200"/>
<path d="M25.1916 22.3602L49.5 16.9584L73.8083 22.3602C75.1621 22.661 76.125 23.8616 76.125 25.2481V54.7922C76.125 60.7269 73.159 66.2691 68.2209 69.5611L49.5 82.0417L30.7791 69.5611C25.8411 66.2691 22.875 60.7269 22.875 54.7922V25.2481C22.875 23.8616 23.838 22.661 25.1916 22.3602ZM49.5 46.5417C53.5846 46.5417 56.8958 43.2305 56.8958 39.1459C56.8958 35.0613 53.5846 31.75 49.5 31.75C45.4154 31.75 42.1042 35.0613 42.1042 39.1459C42.1042 43.2305 45.4154 46.5417 49.5 46.5417ZM36.2687 61.3334H62.7311C61.9954 54.6771 56.3524 49.5 49.5 49.5C42.6477 49.5 37.0046 54.6771 36.2687 61.3334Z" fill="white"/>
</svg>
