<svg width="30" height="30" viewBox="0 0 30 30" fill="none" xmlns="http://www.w3.org/2000/svg">
<rect width="30" height="30" rx="15" fill="#FFD700"/>
<path d="M21.6695 14.4355C21.9196 15.2259 20.9789 16.2823 19.4211 16.9424C18.6432 17.269 17.8196 17.4736 16.9793 17.549C16.3499 17.5984 15.7184 17.6152 15.0873 17.5994C14.3105 17.5842 13.5335 17.6137 12.7601 17.6877C12.5803 17.7066 12.3995 17.7308 12.2187 17.7529C12.1063 17.7676 12.0274 17.7529 12.0085 17.6961C11.9896 17.6393 12.0369 17.5847 12.1346 17.53C12.976 17.0472 13.7793 16.5007 14.5375 15.8955C15.0398 15.4915 15.564 15.1157 16.1079 14.7698C16.6556 14.4303 17.2426 14.1588 17.8559 13.9614C19.4053 13.4674 20.9379 13.52 21.4845 14.1506C21.5531 14.2409 21.6149 14.3361 21.6695 14.4355ZM18.6348 16.2739C19.4694 15.9922 20.037 15.433 19.8962 15.0294C19.7553 14.6258 18.9712 14.5248 18.1355 14.8065C17.2999 15.0883 16.7375 15.6475 16.8742 16.0521C17.0108 16.4568 17.8086 16.5577 18.6348 16.2739Z" fill="#3C4948"/>
<path d="M19.116 4.61767C20.1188 5.19159 20.1114 7.2455 19.0813 9.49597C18.5651 10.618 17.8869 11.6582 17.0684 12.5831C16.4293 13.3126 15.7734 13.9181 15.1217 14.5341C14.2856 15.3007 13.4922 16.1127 12.7451 16.9664C12.5738 17.1661 12.4045 17.3742 12.2343 17.5792C12.1291 17.7064 12.0345 17.7736 11.9589 17.7305C11.8832 17.6874 11.8842 17.5855 11.9368 17.4299C12.4182 15.9972 12.701 14.6465 12.9459 13.3116C13.0991 12.383 13.3023 11.4633 13.5545 10.5566C13.816 9.65064 14.1814 8.77801 14.6435 7.95607C15.8207 5.88323 17.4889 4.39588 18.6556 4.50625C18.8118 4.53139 18.9657 4.56864 19.116 4.61767ZM17.6318 9.59163C18.2499 8.45956 18.3287 7.30541 17.8063 7.02371C17.2839 6.74201 16.3568 7.42314 15.7377 8.55731C15.1186 9.69148 15.045 10.8425 15.5695 11.1231C16.094 11.4038 17.0138 10.7142 17.6318 9.59163Z" fill="#3C4948"/>
<path d="M12.0743 19.8538C11.9162 19.8031 11.7536 19.7679 11.5887 19.7487C11.5235 19.7414 11.4552 19.7319 11.3848 19.7204C11.3281 19.7107 11.2722 19.6966 11.2176 19.6783C11.0074 19.611 10.8634 19.815 10.9275 20.0988C10.9622 20.2522 10.998 20.4141 11.0326 20.5739L10.9275 20.6033C10.7699 20.1366 10.6122 19.6678 10.4177 19.1075C10.3767 18.9867 10.2538 18.9593 10.2422 19.0697C10.1991 19.4492 10.1644 19.7529 10.1297 20.0557L9.99833 19.9852C9.99833 19.7246 10.0057 19.4649 10.0099 19.2C10.0141 18.9352 9.83015 18.6135 9.60941 18.5347C9.05861 18.3371 8.5341 18.46 8.32072 17.3658C8.30974 17.3113 8.30167 17.2562 8.29654 17.2008C8.24399 16.6752 8.51938 16.5764 8.78112 16.465C9.11117 16.3157 9.54529 16.4797 9.89532 16.8854L9.90162 16.8928L10.4051 17.4762C10.4442 17.523 10.4944 17.5591 10.5512 17.5813C10.5969 17.5986 10.6474 17.5986 10.6931 17.5813C11.02 17.4646 11.4058 17.5235 11.78 17.7526C11.9122 17.8341 12.0355 17.9292 12.1479 18.0364C12.253 18.1962 12.3581 18.3444 12.4632 18.4832C12.5684 18.6187 12.6803 18.7488 12.7985 18.8731C13.0414 19.1623 13.3134 19.4257 13.61 19.6594C13.7509 19.7719 13.8949 19.8759 14.0389 19.9747C14.2018 20.063 14.3752 20.1671 14.5539 20.2838C14.7326 20.4004 14.9166 20.5308 15.1005 20.6727C16.2662 21.6187 17.3153 23.3667 17.4225 25.0191C17.4645 25.5941 17.1229 25.5909 16.9284 25.3344C16.6804 25.0107 16.5847 24.6281 16.508 24.2455C16.2968 23.2121 15.8266 22.2493 15.1415 21.4474L14.9754 21.2561C14.8032 21.0698 14.607 20.9072 14.3921 20.7725C14.1892 20.6453 13.9716 20.535 13.7456 20.413C13.6153 20.3552 13.4839 20.3079 13.3535 20.2617L12.0743 19.8538Z" fill="#3C4948"/>
</svg>
