<svg width="22" height="22" viewBox="0 0 22 22" fill="none" xmlns="http://www.w3.org/2000/svg">
<path d="M4.00436 4.9171L0.761719 1.67446L2.17593 0.260254L5.41857 3.50289H20.6603C21.2126 3.50289 21.6603 3.95061 21.6603 4.50289C21.6603 4.60021 21.6461 4.69702 21.6182 4.79024L19.2182 12.7902C19.0913 13.2132 18.7019 13.5029 18.2603 13.5029H6.00436V15.5029H17.0044V17.5029H5.00436C4.45207 17.5029 4.00436 17.0551 4.00436 16.5029V4.9171ZM6.00436 5.50289V11.5029H17.5163L19.3163 5.50289H6.00436ZM5.50436 21.5029C4.67593 21.5029 4.00436 20.8313 4.00436 20.0029C4.00436 19.1744 4.67593 18.5029 5.50436 18.5029C6.33279 18.5029 7.00436 19.1744 7.00436 20.0029C7.00436 20.8313 6.33279 21.5029 5.50436 21.5029ZM17.5044 21.5029C16.6759 21.5029 16.0044 20.8313 16.0044 20.0029C16.0044 19.1744 16.6759 18.5029 17.5044 18.5029C18.3328 18.5029 19.0044 19.1744 19.0044 20.0029C19.0044 20.8313 18.3328 21.5029 17.5044 21.5029Z" fill="#3C4948"/>
</svg>
