<svg width="16" height="17" viewBox="0 0 16 17" fill="none" xmlns="http://www.w3.org/2000/svg">
<path d="M9.5 1.5H3.65371C3.20682 1.5 2.82206 1.81543 2.73442 2.25364L2.13515 5.25H0.5V6.75H2.08156L3.11079 15.67C3.16537 16.143 3.56592 16.5 4.04211 16.5H11.9579C12.4341 16.5 12.8347 16.143 12.8892 15.67L13.9184 6.75H15.5V5.25H13.8648L13.2656 2.25364C13.1779 1.81543 12.7932 1.5 12.3463 1.5H11V0H9.5V1.5ZM12.3351 5.25H3.66485L4.11485 3H11.8852L12.3351 5.25ZM3.59151 6.75H12.4085L11.4566 15H4.54344L3.59151 6.75Z" fill="#B3B3B3"/>
</svg>
