<svg width="16" height="14" viewBox="0 0 16 14" fill="none" xmlns="http://www.w3.org/2000/svg">
<path d="M5.74854 0.25C5.74854 1.49264 6.7559 2.5 7.9985 2.5C9.24117 2.5 10.2485 1.49264 10.2485 0.25H14.7485C15.1627 0.25 15.4985 0.58579 15.4985 1V6.25C15.4985 6.66423 15.1627 7 14.7485 7H13.2477L13.2485 13C13.2485 13.4142 12.9127 13.75 12.4985 13.75H3.49854C3.08432 13.75 2.74854 13.4142 2.74854 13L2.74779 6.99925L1.24854 7C0.834318 7 0.498535 6.66423 0.498535 6.25V1C0.498535 0.58579 0.834318 0.25 1.24854 0.25H5.74854ZM13.9985 1.74925H11.4357L11.4231 1.78014C10.8586 3.04173 9.61745 3.93438 8.16117 3.99653L7.9985 4C6.47248 4 5.15934 3.08845 4.57389 1.78014L4.56054 1.74925H1.99854V5.49925L4.2476 5.4985L4.24778 12.25H11.7485L11.7476 5.5L13.9985 5.49925V1.74925Z" fill="#B3B3B3"/>
</svg>
