<svg width="18" height="12" viewBox="0 0 18 12" fill="none" xmlns="http://www.w3.org/2000/svg">
<path d="M12.75 0C15.2353 0 17.25 2.01472 17.25 4.5V7.5C17.25 9.98528 15.2353 12 12.75 12H5.25C2.76472 12 0.75 9.98528 0.75 7.5V4.5C0.75 2.01472 2.76472 0 5.25 0H12.75ZM12.75 1.5H5.25C3.64335 1.5 2.33169 2.76298 2.25367 4.35027L2.25 4.5V7.5C2.25 9.10665 3.51298 10.4183 5.10027 10.4963L5.25 10.5H12.75C14.3567 10.5 15.6683 9.237 15.7463 7.6497L15.75 7.5V4.5C15.75 2.89335 14.487 1.58169 12.8997 1.50367L12.75 1.5ZM7.5 3.75V5.25H9V6.75H7.49925L7.5 8.25H6L5.99925 6.75H4.5V5.25H6V3.75H7.5ZM13.5 6.75V8.25H12V6.75H13.5ZM12 3.75V5.25H10.5V3.75H12Z" fill="#B3B3B3"/>
</svg>
