<svg width="16" height="15" viewBox="0 0 16 15" fill="none" xmlns="http://www.w3.org/2000/svg">
<path d="M8 2C4.68629 2 2 4.68629 2 8H4.25C5.07843 8 5.75 8.67155 5.75 9.5V13.25C5.75 14.0785 5.07843 14.75 4.25 14.75H2C1.17157 14.75 0.5 14.0785 0.5 13.25V8C0.5 3.85786 3.85786 0.5 8 0.5C12.1421 0.5 15.5 3.85786 15.5 8V13.25C15.5 14.0785 14.8285 14.75 14 14.75H11.75C10.9215 14.75 10.25 14.0785 10.25 13.25V9.5C10.25 8.67155 10.9215 8 11.75 8H14C14 4.68629 11.3137 2 8 2ZM2 9.5V13.25H4.25V9.5H2ZM11.75 9.5V13.25H14V9.5H11.75Z" fill="#B3B3B3"/>
</svg>
