<svg width="17" height="15" viewBox="0 0 17 15" fill="none" xmlns="http://www.w3.org/2000/svg">
<path d="M12.375 0.25C14.6532 0.25 16.5 2.125 16.5 4.75C16.5 10 10.875 13 9 14.125C7.51695 13.2351 3.68774 11.1722 2.15171 7.75075L0.75 7.75V6.25L1.65784 6.25068C1.55569 5.77248 1.5 5.27238 1.5 4.75C1.5 2.125 3.375 0.25 5.625 0.25C7.01998 0.25 8.25 1 9 1.75C9.75 1 10.98 0.25 12.375 0.25ZM12.375 1.75C11.5681 1.75 10.6945 2.17683 10.0606 2.81066L9 3.87132L7.93935 2.81066C7.30551 2.17683 6.43192 1.75 5.625 1.75C4.1693 1.75 3 2.99238 3 4.75C3 5.26406 3.06776 5.7637 3.19993 6.2503L4.82536 6.25L6.375 3.66726L8.625 7.41722L9.32535 6.25H12.75V7.75H10.1747L8.625 10.3328L6.375 6.58278L5.67464 7.75L3.83092 7.75045C4.42295 8.78028 5.31978 9.75108 6.48385 10.6772C7.04251 11.1216 7.63838 11.5364 8.29957 11.9529C8.52345 12.0939 8.74582 12.2297 9 12.3814C9.25418 12.2297 9.47655 12.0939 9.70043 11.9529C10.3616 11.5364 10.9575 11.1216 11.5162 10.6772C13.7503 8.89975 15 6.95762 15 4.75C15 2.98057 13.8472 1.75 12.375 1.75Z" fill="#B3B3B3"/>
</svg>
