<svg width="473" height="164" viewBox="0 0 473 164" fill="none" xmlns="http://www.w3.org/2000/svg">
<g clip-path="url(#clip0_1534_13081)">
<rect width="473" height="164" rx="21" fill="#F6F6F6"/>
<path d="M295 88C295 120.041 269.248 146 237.5 146C205.752 146 180 120.041 180 88C180 55.9594 205.752 30 237.5 30C269.248 30 295 55.9594 295 88Z" stroke="#E0E0E0" stroke-width="2"/>
<path d="M353 84C353 148.625 301.057 201 237 201C172.943 201 121 148.625 121 84C121 19.3746 172.943 -33 237 -33C301.057 -33 353 19.3746 353 84Z" stroke="#EFEFEF" stroke-width="2"/>
<path d="M413 81.5C413 175.64 334.674 252 238 252C141.326 252 63 175.64 63 81.5C63 -12.6403 141.326 -89 238 -89C334.674 -89 413 -12.6403 413 81.5Z" stroke="#F3F3F3" stroke-width="2"/>
<circle cx="236.5" cy="81.5" r="277.5" stroke="#F3F3F3" stroke-width="2"/>
<path d="M250.258 101.174L237 114.432L223.742 101.174C216.419 93.8518 216.419 81.9801 223.742 74.6578C231.064 67.3354 242.936 67.3354 250.258 74.6578C257.581 81.9801 257.581 93.8518 250.258 101.174ZM237 96.2493C241.602 96.2493 245.333 92.5183 245.333 87.916C245.333 83.3136 241.602 79.5827 237 79.5827C232.398 79.5827 228.667 83.3136 228.667 87.916C228.667 92.5183 232.398 96.2493 237 96.2493ZM237 92.0827C234.699 92.0827 232.833 90.2173 232.833 87.916C232.833 85.6148 234.699 83.7493 237 83.7493C239.301 83.7493 241.167 85.6148 241.167 87.916C241.167 90.2173 239.301 92.0827 237 92.0827Z" fill="black"/>
</g>
<defs>
<clipPath id="clip0_1534_13081">
<rect width="473" height="164" rx="21" fill="white"/>
</clipPath>
</defs>
</svg>
