<svg width="18" height="22" viewBox="0 0 18 22" fill="none" xmlns="http://www.w3.org/2000/svg">
<path d="M15 8.5C15 5.18629 12.3137 2.5 9 2.5C5.68629 2.5 3 5.18629 3 8.5V16.5H15V8.5ZM17 17.1667L17.4 17.7C17.5657 17.9209 17.5209 18.2343 17.3 18.4C17.2135 18.4649 17.1082 18.5 17 18.5H1C0.72386 18.5 0.5 18.2761 0.5 18C0.5 17.8918 0.53509 17.7865 0.6 17.7L1 17.1667V8.5C1 4.08172 4.58172 0.5 9 0.5C13.4183 0.5 17 4.08172 17 8.5V17.1667ZM6.5 19.5H11.5C11.5 20.8807 10.3807 22 9 22C7.6193 22 6.5 20.8807 6.5 19.5Z" fill="#3C4948"/>
</svg>
