<svg width="99" height="99" viewBox="0 0 99 99" fill="none" xmlns="http://www.w3.org/2000/svg">
<rect width="99" height="99" rx="24" fill="#FFC200"/>
<path d="M68 37.1668H74.1667C75.8696 37.1668 77.25 38.5473 77.25 40.2502V77.2502C77.25 78.9531 75.8696 80.3335 74.1667 80.3335H24.8333C23.1305 80.3335 21.75 78.9531 21.75 77.2502V40.2502C21.75 38.5473 23.1305 37.1668 24.8333 37.1668H31V34.0835C31 23.8662 39.2827 15.5835 49.5 15.5835C59.7172 15.5835 68 23.8662 68 34.0835V37.1668ZM61.8333 37.1668V34.0835C61.8333 27.272 56.3114 21.7502 49.5 21.7502C42.6885 21.7502 37.1667 27.272 37.1667 34.0835V37.1668H61.8333ZM34.0833 46.4168V52.5835H40.25V46.4168H34.0833ZM34.0833 55.6668V61.8335H40.25V55.6668H34.0833ZM34.0833 64.9168V71.0835H40.25V64.9168H34.0833Z" fill="white"/>
</svg>
