<svg width="601" height="164" viewBox="0 0 601 164" fill="none" xmlns="http://www.w3.org/2000/svg">
<g clip-path="url(#clip0_1533_12899)">
<rect width="601" height="164" rx="21" fill="#F6F6F6"/>
<path d="M359 88C359 120.041 333.248 146 301.5 146C269.752 146 244 120.041 244 88C244 55.9594 269.752 30 301.5 30C333.248 30 359 55.9594 359 88Z" stroke="#E0E0E0" stroke-width="2"/>
<path d="M417 84C417 148.625 365.057 201 301 201C236.943 201 185 148.625 185 84C185 19.3746 236.943 -33 301 -33C365.057 -33 417 19.3746 417 84Z" stroke="#EFEFEF" stroke-width="2"/>
<path d="M477 81.5C477 175.64 398.674 252 302 252C205.326 252 127 175.64 127 81.5C127 -12.6403 205.326 -89 302 -89C398.674 -89 477 -12.6403 477 81.5Z" stroke="#F3F3F3" stroke-width="2"/>
<circle cx="300.5" cy="81.5" r="277.5" stroke="#F3F3F3" stroke-width="2"/>
<path d="M322.832 106.666V110.833H281.165V106.666H283.249V92.5873C280.736 90.9056 279.082 88.0414 279.082 84.791C279.082 83.0678 279.55 81.4081 280.401 79.9941L286.051 70.2077C286.424 69.5631 287.111 69.166 287.856 69.166H316.142C316.886 69.166 317.574 69.5631 317.946 70.2077L323.577 79.9613C324.448 81.4081 324.915 83.0678 324.915 84.791C324.915 88.0414 323.261 90.9056 320.749 92.5873V106.666H322.832ZM289.058 73.3327L283.99 82.1102C283.507 82.9127 283.249 83.8304 283.249 84.791C283.249 87.6675 285.581 89.9994 288.457 89.9994C290.605 89.9994 292.508 88.6875 293.294 86.7275C293.993 84.9832 296.462 84.9832 297.162 86.7275C297.947 88.6875 299.851 89.9994 301.999 89.9994C304.147 89.9994 306.05 88.6875 306.836 86.7275C307.535 84.9832 310.004 84.9832 310.703 86.7275C311.489 88.6875 313.392 89.9994 315.54 89.9994C318.417 89.9994 320.749 87.6675 320.749 84.791C320.749 83.8304 320.49 82.9127 319.988 82.0774L314.939 73.3327H289.058Z" fill="black"/>
</g>
<defs>
<clipPath id="clip0_1533_12899">
<rect width="601" height="164" rx="21" fill="white"/>
</clipPath>
</defs>
</svg>
