<svg width="20" height="21" viewBox="0 0 20 21" fill="none" xmlns="http://www.w3.org/2000/svg">
<path d="M20 15.0022C19.999 17.8731 17.9816 20.2726 15.2872 20.8616L14.6492 18.9476C15.8532 18.7511 16.8765 18.0171 17.4649 17H15C13.8954 17 13 16.1046 13 15V11C13 9.8954 13.8954 9 15 9H17.9381C17.446 5.05369 14.0796 2 10 2C5.92038 2 2.55399 5.05369 2.06189 9H5C6.10457 9 7 9.8954 7 11V15C7 16.1046 6.10457 17 5 17H2C0.89543 17 0 16.1046 0 15V10C0 4.47715 4.47715 0 10 0C15.5228 0 20 4.47715 20 10V10.9987V11V15V15.0022ZM18 15V11H15V15H18ZM2 11V15H5V11H2Z" fill="#3C4948"/>
</svg>
