<svg width="99" height="99" viewBox="0 0 99 99" fill="none" xmlns="http://www.w3.org/2000/svg">
<rect width="99" height="99" rx="24" fill="#FFC200"/>
<path d="M76.12 27.8546H78.5417C80.4287 27.8546 81.9584 29.3843 81.9584 31.2713V55.1878C81.9584 57.0748 80.4287 58.6045 78.5417 58.6045H71.7084L57.4667 38.6661C55.7672 36.287 52.7428 35.2526 49.9425 36.0927L41.4512 38.6401C39.0434 39.3625 36.4333 38.7045 34.6557 36.9269L33.6555 35.9266C32.1309 34.402 32.3822 31.8638 34.1762 30.6678L52.6297 18.3654C54.8813 16.8645 57.806 16.8334 60.089 18.2861L74.2859 27.3204C74.8339 27.6693 75.4705 27.8546 76.12 27.8546ZM27.3835 56.195L21.863 61.0255C20.2524 62.4346 20.3191 64.9608 22.002 66.2834L39.5663 80.0837C41.2066 81.3725 43.6087 80.9033 44.6436 79.0922L47.0486 74.8835C48.5177 72.3125 48.1638 69.0878 46.1719 66.8967L36.9396 56.741C34.435 53.9858 30.1857 53.7432 27.3835 56.195ZM34.28 24.4381H20.4577C18.5707 24.4381 17.041 25.9679 17.041 27.8548V53.5338C17.041 54.9292 17.4672 56.2723 18.2375 57.3967C18.3192 57.3195 18.4028 57.2433 18.4882 57.1684L24.0087 52.338C28.9125 48.0473 36.3487 48.472 40.7318 53.2936L49.9644 63.4493C53.45 67.2835 54.0695 72.9268 51.4984 77.4262L49.2629 81.3386C51.1862 82.0674 53.3773 81.9031 55.2018 80.8084L70.2665 71.7696C71.9762 70.7435 72.4477 68.4776 71.2895 66.8547L53.2949 41.6448C52.8699 41.0501 52.1138 40.7915 51.4137 41.0016L42.9224 43.5489C38.7087 44.8131 34.1412 43.6617 31.0304 40.5508L30.0301 39.5505C26.2187 35.7391 26.847 29.3935 31.3319 26.4035L34.28 24.4381Z" fill="white"/>
</svg>
