<svg width="18" height="21" viewBox="0 0 18 21" fill="none" xmlns="http://www.w3.org/2000/svg">
<path d="M5.17891 17.4889L5.04444 17.2584L4.7781 17.2418C3.26617 17.1476 1.91169 16.247 1.24464 14.8718L1.14129 14.6587C0.390827 13.1116 0.741921 11.2555 2.00563 10.0894C2.81222 9.34508 3.21003 8.25726 3.0739 7.16819L2.99454 6.53335C2.61068 3.46244 5.00517 0.75 8.09998 0.75H9.80289C11.1895 0.75 12.4365 1.29434 13.3557 2.17105L13.7008 1.80923L13.3557 2.17105C13.4556 2.26635 13.4593 2.42459 13.364 2.52451C13.2688 2.62442 13.1105 2.62817 13.0106 2.53288C12.1803 1.74096 11.0554 1.25 9.80289 1.25H8.09998C5.30592 1.25 3.14412 3.69885 3.49068 6.47133L3.57004 7.10618C3.72619 8.35536 3.26989 9.60311 2.34471 10.4569C1.24298 11.4735 0.936886 13.0917 1.59116 14.4405L1.69451 14.6536L2.13312 14.4408L1.69451 14.6536C2.31648 15.9358 3.61634 16.75 5.04147 16.75H5.16891V16.7501L5.17795 16.7499L5.18695 16.7499L5.18695 16.75H5.19595H13.1703V16.7501L13.1794 16.7499L13.1855 16.7499L13.1884 16.7499L13.1884 16.75H13.1974H13.2623C14.4801 16.75 15.6136 16.1278 16.2674 15.1004C17.1904 13.6501 16.946 11.7476 15.6863 10.5777L15.6424 10.537C15.3832 10.2962 15.1589 10.0261 14.9725 9.7345C14.8981 9.61817 14.9322 9.46358 15.0485 9.38921C15.1648 9.31485 15.3194 9.34887 15.3938 9.4652C15.5576 9.72149 15.7547 9.95889 15.9827 10.1706L15.9827 10.1706L16.0266 10.2113C17.463 11.5454 17.7418 13.715 16.6892 15.3689C16.0013 16.4498 14.8478 17.1374 13.5828 17.2374L13.3221 17.258L13.1903 17.4839L12.9991 17.8117C12.0612 19.4194 10.635 20.25 9.18314 20.25C7.73122 20.25 6.30504 19.4194 5.36719 17.8117L5.17891 17.4889ZM6.51988 17.25H5.53442L6.11637 18.0453C6.95893 19.1967 8.08488 19.75 9.18314 19.75C10.2814 19.75 11.4073 19.1967 12.2499 18.0453L12.8319 17.25H11.8464H6.51988ZM15.6833 6C15.6833 6.82843 15.0117 7.5 14.1833 7.5C13.3548 7.5 12.6833 6.82843 12.6833 6C12.6833 5.17157 13.3548 4.5 14.1833 4.5C15.0117 4.5 15.6833 5.17157 15.6833 6Z" fill="#2E2E2E" stroke="#2E2E2E"/>
</svg>
