<svg width="24" height="23" viewBox="0 0 24 23" fill="none" xmlns="http://www.w3.org/2000/svg">
<path d="M2.76451 14.8197L3.47781 14.5879L2.76451 14.8197ZM1.65401 8.65157L2.37532 8.85703L1.65401 8.65157ZM6.29122 3.96556L5.85039 3.3588L6.29122 3.96556ZM1.7673 8.30291L2.47161 8.56067L1.7673 8.30291ZM5.7882 20.678L5.3699 21.3005L5.7882 20.678ZM5.49161 20.4625L5.02882 21.0527L5.49161 20.4625ZM21.2306 14.8197L20.5173 14.5879L21.2306 14.8197ZM18.5035 20.4625L18.9663 21.0527L18.5035 20.4625ZM18.2069 20.678L18.6252 21.3005L18.2069 20.678ZM17.7039 3.96556L18.1447 3.3588L17.7039 3.96556ZM22.2278 8.30291L21.5235 8.56067L22.2278 8.30291ZM22.3411 8.65157L21.6198 8.85703L22.3411 8.65157ZM12.1809 1.00336L12.1534 1.75286L12.1809 1.00336ZM11.8143 1.00336L11.8418 1.75286L11.8143 1.00336ZM9.99756 16.0697C9.58335 16.0697 9.24756 16.4054 9.24756 16.8197C9.24756 17.2339 9.58335 17.5697 9.99756 17.5697V16.0697ZM13.9976 17.5697C14.4118 17.5697 14.7476 17.2339 14.7476 16.8197C14.7476 16.4054 14.4118 16.0697 13.9976 16.0697V17.5697ZM3.47781 14.5879C2.96345 13.0049 2.59706 11.874 2.40481 10.9558C2.21617 10.055 2.21209 9.43007 2.37532 8.85703L0.9327 8.44611C0.67848 9.33861 0.720343 10.2303 0.936653 11.2633C1.14936 12.2791 1.54694 13.4994 2.05122 15.0514L3.47781 14.5879ZM5.85039 3.3588C4.53016 4.31799 3.49121 5.07158 2.72206 5.76835C1.93988 6.47693 1.38191 7.17368 1.06298 8.04515L2.47161 8.56067C2.67639 8.00112 3.04698 7.49798 3.72913 6.88002C4.42431 6.25026 5.38547 5.55068 6.73206 4.57232L5.85039 3.3588ZM2.37532 8.85703C2.40378 8.7571 2.4359 8.65824 2.47161 8.56067L1.06298 8.04515C1.01467 8.17717 0.971211 8.31091 0.9327 8.44611L2.37532 8.85703ZM11.9976 20.7779C10.3331 20.7779 9.14429 20.7768 8.2117 20.676C7.29661 20.577 6.70105 20.3878 6.2065 20.0555L5.3699 21.3005C6.14016 21.8181 7.0011 22.0538 8.0504 22.1673C9.0822 22.2789 10.3657 22.2779 11.9976 22.2779V20.7779ZM2.05122 15.0514C2.5555 16.6034 2.95115 17.8244 3.37614 18.7712C3.80833 19.7341 4.29856 20.4801 5.02882 21.0527L5.9544 19.8723C5.48552 19.5046 5.12152 18.9967 4.7446 18.157C4.36048 17.3012 3.99216 16.1709 3.47781 14.5879L2.05122 15.0514ZM6.2065 20.0555C6.12025 19.9975 6.03616 19.9364 5.9544 19.8723L5.02882 21.0527C5.13945 21.1394 5.25322 21.2221 5.3699 21.3005L6.2065 20.0555ZM20.5173 14.5879C20.003 16.1709 19.6346 17.3012 19.2505 18.157C18.8736 18.9967 18.5096 19.5046 18.0407 19.8723L18.9663 21.0527C19.6966 20.4801 20.1868 19.7341 20.619 18.7712C21.044 17.8244 21.4396 16.6034 21.9439 15.0514L20.5173 14.5879ZM11.9976 22.2779C13.6294 22.2779 14.9129 22.2789 15.9447 22.1673C16.994 22.0538 17.855 21.8181 18.6252 21.3005L17.7886 20.0555C17.2941 20.3878 16.6985 20.577 15.7834 20.676C14.8508 20.7768 13.662 20.7779 11.9976 20.7779V22.2779ZM18.0407 19.8723C17.959 19.9364 17.8749 19.9975 17.7886 20.0555L18.6252 21.3005C18.7419 21.2221 18.8557 21.1394 18.9663 21.0527L18.0407 19.8723ZM17.2631 4.57232C18.6097 5.55068 19.5708 6.25026 20.266 6.88002C20.9482 7.49798 21.3187 8.00112 21.5235 8.56067L22.9321 8.04515C22.6132 7.17368 22.0553 6.47693 21.2731 5.76835C20.5039 5.07158 19.465 4.31799 18.1447 3.3588L17.2631 4.57232ZM21.9439 15.0514C22.4482 13.4994 22.8458 12.2791 23.0585 11.2633C23.2748 10.2303 23.3166 9.33861 23.0624 8.44611L21.6198 8.85703C21.783 9.43007 21.779 10.055 21.5903 10.9558C21.3981 11.874 21.0317 13.0049 20.5173 14.5879L21.9439 15.0514ZM21.5235 8.56067C21.5592 8.65824 21.5913 8.75709 21.6198 8.85703L23.0624 8.44611C23.0239 8.31091 22.9805 8.17717 22.9321 8.04515L21.5235 8.56067ZM18.1447 3.3588C16.8245 2.3996 15.7868 1.64436 14.8864 1.12818C13.9708 0.603234 13.1357 0.287886 12.2084 0.253865L12.1534 1.75286C12.7488 1.7747 13.3418 1.97167 14.1403 2.42948C14.9541 2.89603 15.9165 3.59396 17.2631 4.57232L18.1447 3.3588ZM6.73206 4.57232C8.07866 3.59396 9.04101 2.89603 9.85478 2.42948C10.6533 1.97167 11.2463 1.7747 11.8418 1.75286L11.7868 0.253865C10.8594 0.287886 10.0243 0.603234 9.10871 1.12818C8.20837 1.64436 7.17061 2.3996 5.85039 3.3588L6.73206 4.57232ZM12.2084 0.253865C12.0679 0.248712 11.9273 0.248712 11.7868 0.253865L11.8418 1.75286C11.9456 1.74905 12.0495 1.74905 12.1534 1.75286L12.2084 0.253865ZM9.99756 17.5697H13.9976V16.0697H9.99756V17.5697Z" fill="black"/>
</svg>
