<svg width="24" height="24" viewBox="0 0 24 24" fill="none" xmlns="http://www.w3.org/2000/svg">
<path d="M8.17891 18.4889L8.04444 18.2584L7.7781 18.2418C6.26617 18.1476 4.91169 17.247 4.24464 15.8718L4.14129 15.6587C3.39083 14.1116 3.74192 12.2555 5.00563 11.0894C5.81222 10.3451 6.21003 9.25726 6.0739 8.16819L5.99454 7.53335C5.61068 4.46244 8.00517 1.75 11.1 1.75H12.8029C14.1895 1.75 15.4365 2.29434 16.3557 3.17105L16.7008 2.80923L16.3557 3.17105C16.4556 3.26635 16.4593 3.42459 16.364 3.52451C16.2688 3.62442 16.1105 3.62817 16.0106 3.53288C15.1803 2.74096 14.0554 2.25 12.8029 2.25H11.1C8.30592 2.25 6.14412 4.69885 6.49068 7.47133L6.57004 8.10618C6.72619 9.35536 6.26989 10.6031 5.34471 11.4569C4.24298 12.4735 3.93689 14.0917 4.59116 15.4405L4.69451 15.6536L5.13312 15.4408L4.69451 15.6536C5.31648 16.9358 6.61634 17.75 8.04147 17.75H8.16891V17.7501L8.17795 17.7499L8.18695 17.7499L8.18695 17.75H8.19595H16.1703V17.7501L16.1794 17.7499L16.1855 17.7499L16.1884 17.7499L16.1884 17.75H16.1974H16.2623C17.4801 17.75 18.6136 17.1278 19.2674 16.1004C20.1904 14.6501 19.946 12.7476 18.6863 11.5777L18.6424 11.537C18.3832 11.2962 18.1589 11.0261 17.9725 10.7345C17.8981 10.6182 17.9322 10.4636 18.0485 10.3892C18.1648 10.3148 18.3194 10.3489 18.3938 10.4652C18.5576 10.7215 18.7547 10.9589 18.9827 11.1706L18.9827 11.1706L19.0266 11.2113C20.463 12.5454 20.7418 14.715 19.6892 16.3689C19.0013 17.4498 17.8478 18.1374 16.5828 18.2374L16.3221 18.258L16.1903 18.4839L15.9991 18.8117C15.0612 20.4194 13.635 21.25 12.1831 21.25C10.7312 21.25 9.30504 20.4194 8.36719 18.8117L8.17891 18.4889ZM9.51988 18.25H8.53442L9.11637 19.0453C9.95893 20.1967 11.0849 20.75 12.1831 20.75C13.2814 20.75 14.4073 20.1967 15.2499 19.0453L15.8319 18.25H14.8464H9.51988ZM18.6833 7C18.6833 7.82843 18.0117 8.5 17.1833 8.5C16.3548 8.5 15.6833 7.82843 15.6833 7C15.6833 6.17157 16.3548 5.5 17.1833 5.5C18.0117 5.5 18.6833 6.17157 18.6833 7Z" fill="black" stroke="black"/>
</svg>
