<svg width="24" height="24" viewBox="0 0 24 24" fill="none" xmlns="http://www.w3.org/2000/svg">
<path d="M17.0022 6C17.0022 5.95299 17.0016 5.90613 17.0003 5.85943C16.9258 3.163 14.7166 1 12.0022 1C9.31277 1 7.11926 3.12341 7.00675 5.78518C7.00374 5.85641 7.00222 5.92803 7.00222 6M17.0022 6H7.00222M17.0022 6H18.3109C20.3966 6 21.4395 6 22.0357 6.66616C22.632 7.33231 22.5168 8.36879 22.2865 10.4417L21.9906 13.1043C21.5205 17.3356 21.2854 19.4513 19.8616 20.7256C18.4378 22 16.2926 22 12.0022 22C7.71182 22 5.56662 22 4.14283 20.7256C2.71903 19.4513 2.48395 17.3356 2.01381 13.1043L1.71797 10.4417C1.48764 8.36879 1.37248 7.33231 1.96871 6.66616C2.56495 6 3.6078 6 5.6935 6H7.00222" stroke="black" stroke-width="1.5"/>
</svg>
