<svg width="24" height="24" viewBox="0 0 24 24" fill="none" xmlns="http://www.w3.org/2000/svg">
<path d="M5.93237 5.38642L5.75001 6.11391L5.93237 5.38642ZM9.30692 3.43812L8.58572 3.2323L9.30692 3.43812ZM3.23886 10.0517L3.77771 9.53005L3.23886 10.0517ZM3.23886 13.9483L2.70001 13.4266H2.70001L3.23886 13.9483ZM5.93237 18.6136L6.11472 19.3411L5.93237 18.6136ZM9.30692 20.5619L8.58572 20.7677L9.30692 20.5619ZM14.6939 20.5619L15.4151 20.7677L14.6939 20.5619ZM18.0685 18.6136L18.2509 17.8861L18.0685 18.6136ZM20.762 13.9483L20.2232 14.47V14.47L20.762 13.9483ZM20.762 10.0517L20.2232 9.53005V9.53005L20.762 10.0517ZM18.0685 5.38642L17.8861 4.65893L18.0685 5.38642ZM14.6939 3.43812L15.4151 3.2323L14.6939 3.43812ZM5.75001 6.11391C7.60892 6.57987 9.50221 5.48678 10.0281 3.64394L8.58572 3.2323C8.28195 4.2967 7.18841 4.92806 6.11472 4.65893L5.75001 6.11391ZM3.77771 9.53005C2.34244 8.04752 3.74847 5.6122 5.75001 6.11391L6.11472 4.65893C2.64939 3.7903 0.215087 8.00664 2.70001 10.5734L3.77771 9.53005ZM3.77771 14.47C5.11069 13.0931 5.11069 10.9069 3.77771 9.53005L2.70001 10.5734C3.46993 11.3687 3.46992 12.6314 2.70001 13.4266L3.77771 14.47ZM5.75001 17.8861C3.74847 18.3878 2.34244 15.9525 3.77771 14.47L2.70001 13.4266C0.215086 15.9934 2.64939 20.2097 6.11472 19.3411L5.75001 17.8861ZM10.0281 20.3561C9.50221 18.5133 7.60892 17.4202 5.75001 17.8861L6.11472 19.3411C7.18841 19.072 8.28195 19.7033 8.58572 20.7677L10.0281 20.3561ZM13.9727 20.3561C13.4065 22.3403 10.5944 22.3403 10.0281 20.3561L8.58572 20.7677C9.56613 24.2031 14.4347 24.2031 15.4151 20.7677L13.9727 20.3561ZM18.2509 17.8861C16.3919 17.4202 14.4987 18.5133 13.9727 20.3561L15.4151 20.7677C15.7189 19.7033 16.8125 19.072 17.8861 19.3411L18.2509 17.8861ZM20.2232 14.47C21.6584 15.9525 20.2524 18.3878 18.2509 17.8861L17.8861 19.3411C21.3515 20.2097 23.7858 15.9934 21.3009 13.4266L20.2232 14.47ZM20.2232 9.53005C18.8902 10.9069 18.8902 13.0931 20.2232 14.47L21.3009 13.4266C20.5309 12.6314 20.5309 11.3687 21.3009 10.5734L20.2232 9.53005ZM18.2509 6.11391C20.2524 5.6122 21.6584 8.04752 20.2232 9.53005L21.3009 10.5734C23.7858 8.00664 21.3515 3.7903 17.8861 4.65893L18.2509 6.11391ZM13.9727 3.64394C14.4987 5.48678 16.3919 6.57987 18.2509 6.11391L17.8861 4.65893C16.8125 4.92806 15.7189 4.2967 15.4151 3.2323L13.9727 3.64394ZM15.4151 3.2323C14.4347 -0.203084 9.56613 -0.203083 8.58572 3.2323L10.0281 3.64394C10.5944 1.6597 13.4065 1.6597 13.9727 3.64394L15.4151 3.2323ZM8.25043 12C8.25043 14.0711 9.92937 15.75 12.0004 15.75V14.25C10.7578 14.25 9.75043 13.2427 9.75043 12H8.25043ZM12.0004 15.75C14.0715 15.75 15.7504 14.0711 15.7504 12H14.2504C14.2504 13.2427 13.2431 14.25 12.0004 14.25V15.75ZM15.7504 12C15.7504 9.92895 14.0715 8.25001 12.0004 8.25001V9.75002C13.2431 9.75002 14.2504 10.7574 14.2504 12H15.7504ZM12.0004 8.25001C9.92937 8.25001 8.25043 9.92895 8.25043 12H9.75043C9.75043 10.7574 10.7578 9.75002 12.0004 9.75002V8.25001Z" fill="black"/>
</svg>
