<svg width="24" height="20" viewBox="0 0 24 20" fill="none" xmlns="http://www.w3.org/2000/svg">
<path fill-rule="evenodd" clip-rule="evenodd" d="M10.397 1.89454C11.457 1.70182 12.543 1.70182 13.603 1.89454C18.3658 2.76051 21.5798 7.25273 20.8617 12.0401L20.8535 12.0946C19.4028 12.1708 18.25 13.3711 18.25 14.8408V16.8408C18.25 18.3596 19.4812 19.5908 21 19.5908C22.5188 19.5908 23.75 18.3596 23.75 16.8408V14.8408C23.75 13.7999 23.1721 12.8952 22.3203 12.4281L22.3451 12.2626C23.1834 6.67386 19.4314 1.42967 13.8713 0.418734C12.6339 0.193755 11.3661 0.193755 10.1287 0.418734C4.56859 1.42967 0.816569 6.67386 1.65488 12.2626L1.67971 12.4281C0.827854 12.8952 0.25 13.7999 0.25 14.8408V16.8408C0.25 18.3596 1.48122 19.5908 3 19.5908C4.51878 19.5908 5.75 18.3596 5.75 16.8408V14.8408C5.75 13.3711 4.59716 12.1708 3.14647 12.0946L3.13829 12.0401C2.42018 7.25273 5.63419 2.76051 10.397 1.89454ZM2.69261 13.6287C2.79017 13.6041 2.893 13.5908 3 13.5908C3.69036 13.5908 4.25 14.1504 4.25 14.8408V16.8408C4.25 17.5312 3.69036 18.0908 3 18.0908C2.30964 18.0908 1.75 17.5312 1.75 16.8408V14.8408C1.75 14.2573 2.15048 13.7655 2.69261 13.6287ZM19.75 14.8408C19.75 14.1504 20.3096 13.5908 21 13.5908C21.107 13.5908 21.2098 13.6041 21.3074 13.6287C21.8495 13.7655 22.25 14.2573 22.25 14.8408V16.8408C22.25 17.5312 21.6904 18.0908 21 18.0908C20.3096 18.0908 19.75 17.5312 19.75 16.8408V14.8408Z" fill="black"/>
</svg>
